<svg width="21" height="20" viewBox="0 0 21 20" fill="none" xmlns="http://www.w3.org/2000/svg">
<path d="M1.50001 9.75127C1.49979 8.30298 1.88082 6.88015 2.60482 5.62581C3.32882 4.37148 4.37026 3.32983 5.62445 2.60559C6.87865 1.88135 8.3014 1.50003 9.74969 1.49998C11.198 1.49992 12.6208 1.88112 13.875 2.60527C14.0472 2.70315 14.2511 2.72897 14.4422 2.67708C14.6333 2.62519 14.7962 2.4998 14.8952 2.32829C14.9942 2.15677 15.0214 1.95305 14.9708 1.76158C14.9202 1.57011 14.7959 1.40643 14.625 1.30627C12.7663 0.233138 10.6054 -0.196702 8.47754 0.083406C6.34964 0.363514 4.37362 1.33792 2.85594 2.8555C1.33826 4.37308 0.363733 6.34904 0.0834877 8.47692C-0.196757 10.6048 0.232945 12.7657 1.30595 14.6245C2.37896 16.4833 4.03531 17.936 6.01813 18.7575C8.00094 19.579 10.1994 19.7233 12.2726 19.168C14.3458 18.6127 16.1778 17.3889 17.4845 15.6863C18.7913 13.9837 19.4997 11.8975 19.5 9.75127C19.5 9.55235 19.421 9.36159 19.2803 9.22094C19.1397 9.08028 18.9489 9.00127 18.75 9.00127C18.5511 9.00127 18.3603 9.08028 18.2197 9.22094C18.079 9.36159 18 9.55235 18 9.75127C18 11.9393 17.1308 14.0377 15.5836 15.5849C14.0365 17.1321 11.938 18.0013 9.75001 18.0013C7.56198 18.0013 5.46356 17.1321 3.91638 15.5849C2.36921 14.0377 1.50001 11.9393 1.50001 9.75127Z" fill="white"/>
<path d="M20.781 2.78231C20.8508 2.71258 20.9061 2.6298 20.9438 2.53869C20.9816 2.44758 21.001 2.34993 21.001 2.25131C21.001 2.1527 20.9816 2.05505 20.9438 1.96394C20.9061 1.87283 20.8508 1.79005 20.781 1.72031C20.7113 1.65058 20.6285 1.59527 20.5374 1.55753C20.4463 1.51979 20.3486 1.50037 20.25 1.50037C20.1514 1.50037 20.0538 1.51979 19.9627 1.55753C19.8715 1.59527 19.7888 1.65058 19.719 1.72031L9.75003 11.6908L5.78103 7.72031C5.7113 7.65058 5.62852 7.59527 5.53741 7.55753C5.4463 7.51979 5.34865 7.50037 5.25003 7.50037C5.15142 7.50037 5.05377 7.51979 4.96266 7.55753C4.87155 7.59527 4.78876 7.65058 4.71903 7.72031C4.6493 7.79004 4.59399 7.87283 4.55625 7.96394C4.51851 8.05505 4.49908 8.1527 4.49908 8.25131C4.49908 8.34993 4.51851 8.44758 4.55625 8.53869C4.59399 8.6298 4.6493 8.71258 4.71903 8.78231L9.21903 13.2823C9.2887 13.3522 9.37146 13.4076 9.46258 13.4454C9.5537 13.4832 9.65138 13.5027 9.75003 13.5027C9.84868 13.5027 9.94636 13.4832 10.0375 13.4454C10.1286 13.4076 10.2114 13.3522 10.281 13.2823L20.781 2.78231Z" fill="white"/>
</svg>
